<?xml version="1.0" encoding="UTF-8"?>
<svg xmlns="http://www.w3.org/2000/svg" xmlns:xlink="http://www.w3.org/1999/xlink" width="16px" height="16px" viewBox="0 0 16 16" version="1.1">
<g id="surface1">
<path style=" stroke:none;fill-rule:nonzero;fill:rgb(0%,0%,0%);fill-opacity:1;" d="M 8.761719 0.835938 C 8.71875 0.847656 8.648438 0.882812 8.535156 0.945312 C 8.5 0.964844 8.441406 0.996094 8.410156 1.015625 C 8.3125 1.066406 8.203125 1.125 8.109375 1.179688 C 8.027344 1.226562 8.015625 1.230469 7.96875 1.230469 C 7.921875 1.230469 7.914062 1.226562 7.863281 1.191406 C 7.828125 1.171875 7.789062 1.148438 7.773438 1.140625 C 7.722656 1.125 7.652344 1.132812 7.589844 1.164062 C 7.5625 1.179688 7.511719 1.207031 7.480469 1.222656 C 7.410156 1.257812 7.347656 1.269531 7.265625 1.257812 C 7.15625 1.246094 6.816406 1.214844 6.746094 1.214844 C 6.644531 1.214844 6.570312 1.238281 6.371094 1.335938 C 5.972656 1.519531 5.710938 1.640625 5.453125 1.753906 C 5.082031 1.925781 5.027344 1.953125 4.96875 1.992188 C 4.898438 2.039062 4.828125 2.097656 4.777344 2.160156 C 4.75 2.1875 4.722656 2.222656 4.710938 2.238281 C 4.699219 2.25 4.664062 2.289062 4.636719 2.324219 C 4.609375 2.359375 4.578125 2.398438 4.566406 2.414062 C 4.554688 2.425781 4.351562 2.664062 4.121094 2.945312 C 3.886719 3.226562 3.695312 3.457031 3.691406 3.457031 C 3.667969 3.476562 3.355469 3.867188 3.347656 3.886719 C 3.324219 3.941406 3.210938 4.433594 3.148438 4.742188 C 2.980469 5.597656 2.949219 5.765625 2.871094 6.179688 C 2.757812 6.78125 2.746094 6.863281 2.757812 6.890625 C 2.765625 6.914062 2.800781 6.945312 3.050781 7.1875 C 3.203125 7.335938 3.472656 7.585938 3.511719 7.617188 C 3.527344 7.628906 3.558594 7.644531 3.578125 7.652344 C 3.617188 7.660156 3.75 7.65625 3.953125 7.636719 C 4.023438 7.628906 4.078125 7.625 4.082031 7.628906 C 4.082031 7.628906 4.074219 7.65625 4.058594 7.6875 C 4.015625 7.777344 4 7.851562 4.003906 7.933594 C 4.007812 8.058594 4.054688 8.144531 4.195312 8.300781 C 4.308594 8.429688 4.335938 8.484375 4.332031 8.5625 C 4.324219 8.632812 4.296875 8.6875 4.214844 8.761719 C 4.179688 8.796875 4.148438 8.828125 4.152344 8.828125 C 4.160156 8.835938 4.273438 8.816406 4.320312 8.800781 C 4.347656 8.789062 4.390625 8.773438 4.414062 8.757812 L 4.457031 8.734375 L 4.457031 8.804688 C 4.460938 9.097656 4.734375 9.300781 5.0625 9.257812 C 5.199219 9.242188 5.375 9.167969 5.453125 9.09375 C 5.464844 9.082031 5.476562 9.078125 5.476562 9.082031 C 5.476562 9.089844 5.460938 9.148438 5.445312 9.214844 C 5.429688 9.28125 5.390625 9.4375 5.363281 9.558594 C 5.304688 9.804688 5.300781 9.8125 5.242188 9.804688 C 5.226562 9.800781 5.085938 9.796875 4.925781 9.789062 C 4.699219 9.78125 4.636719 9.785156 4.617188 9.792969 C 4.589844 9.800781 4.566406 9.832031 4.496094 9.957031 C 4.292969 10.296875 4.1875 10.539062 4.121094 10.804688 C 4.085938 10.9375 4.066406 10.96875 3.890625 11.140625 C 3.808594 11.226562 3.703125 11.335938 3.660156 11.382812 C 3.617188 11.433594 3.566406 11.484375 3.550781 11.503906 C 3.226562 11.863281 2.777344 12.503906 2.328125 13.246094 C 2.25 13.371094 2.164062 13.539062 2.167969 13.546875 C 2.171875 13.550781 2.230469 13.523438 2.296875 13.484375 C 2.503906 13.375 2.671875 13.300781 2.867188 13.230469 C 3.136719 13.132812 3.441406 13.0625 3.746094 13.023438 C 4.078125 12.980469 4.523438 12.980469 4.894531 13.023438 C 5.738281 13.117188 6.867188 13.457031 8.199219 14.015625 C 8.53125 14.152344 9.257812 14.476562 9.28125 14.496094 C 9.289062 14.5 9.292969 14.5 9.296875 14.5 C 9.304688 14.488281 9.074219 14.25 8.902344 14.085938 C 8.578125 13.78125 8.167969 13.46875 7.695312 13.175781 C 7.628906 13.132812 7.550781 13.085938 7.527344 13.070312 C 7.507812 13.054688 7.382812 12.984375 7.257812 12.910156 C 6.941406 12.722656 6.953125 12.726562 6.824219 12.652344 C 6.757812 12.617188 6.710938 12.589844 6.710938 12.585938 C 6.714844 12.585938 6.871094 12.644531 7.148438 12.753906 C 7.296875 12.808594 7.515625 12.902344 7.660156 12.972656 L 7.789062 13.035156 L 7.75 12.996094 C 7.726562 12.976562 7.6875 12.941406 7.660156 12.921875 C 7.636719 12.898438 7.597656 12.863281 7.574219 12.84375 C 7.554688 12.828125 7.441406 12.730469 7.324219 12.628906 C 7.207031 12.53125 7.113281 12.441406 7.109375 12.4375 C 7.109375 12.429688 7.144531 12.449219 7.1875 12.476562 C 7.234375 12.503906 7.300781 12.546875 7.335938 12.570312 C 7.699219 12.804688 8.074219 13.066406 8.511719 13.40625 C 8.632812 13.496094 8.738281 13.578125 8.75 13.589844 C 8.761719 13.597656 8.882812 13.695312 9.019531 13.808594 C 9.300781 14.03125 9.523438 14.214844 9.726562 14.386719 C 10.097656 14.707031 10.296875 14.847656 10.554688 14.976562 C 10.710938 15.050781 10.800781 15.085938 10.945312 15.121094 C 11.085938 15.152344 11.183594 15.167969 11.277344 15.171875 C 11.386719 15.171875 11.421875 15.15625 11.457031 15.109375 C 11.5 15.042969 11.464844 14.882812 11.328125 14.570312 C 11.023438 13.859375 10.632812 13.230469 10.082031 12.574219 C 10.015625 12.496094 9.941406 12.40625 9.914062 12.378906 C 9.742188 12.183594 9.652344 12.089844 9.347656 11.789062 L 9.007812 11.449219 L 9.023438 11.410156 C 9.074219 11.28125 9.214844 10.992188 9.222656 10.992188 C 9.226562 10.992188 9.25 11.019531 9.269531 11.050781 C 9.339844 11.144531 9.445312 11.242188 9.519531 11.28125 C 9.585938 11.3125 9.589844 11.3125 9.671875 11.3125 C 9.789062 11.3125 9.789062 11.316406 9.75 11.222656 C 9.730469 11.179688 9.714844 11.128906 9.710938 11.109375 L 9.707031 11.070312 L 9.738281 11.121094 C 9.84375 11.292969 9.964844 11.394531 10.121094 11.433594 C 10.207031 11.460938 10.324219 11.464844 10.402344 11.445312 C 10.464844 11.433594 10.542969 11.398438 10.554688 11.386719 C 10.558594 11.378906 10.542969 11.367188 10.519531 11.359375 C 10.445312 11.324219 10.390625 11.273438 10.378906 11.214844 L 10.371094 11.1875 L 10.402344 11.210938 C 10.417969 11.222656 10.460938 11.246094 10.5 11.265625 C 10.539062 11.285156 10.589844 11.320312 10.613281 11.34375 C 10.660156 11.382812 10.71875 11.417969 10.769531 11.433594 C 10.785156 11.4375 10.835938 11.445312 10.878906 11.449219 C 10.945312 11.453125 10.96875 11.460938 10.984375 11.46875 C 11.015625 11.5 11.058594 11.628906 11.113281 11.882812 C 11.171875 12.140625 11.207031 12.265625 11.261719 12.382812 C 11.378906 12.648438 11.496094 12.835938 11.695312 13.074219 C 11.804688 13.210938 11.832031 13.25 11.835938 13.304688 C 11.839844 13.328125 11.84375 13.464844 11.84375 13.609375 C 11.851562 13.886719 11.851562 13.90625 11.890625 13.953125 C 11.898438 13.964844 11.910156 13.992188 11.914062 14.015625 C 11.914062 14.035156 11.917969 14.0625 11.921875 14.070312 C 11.941406 14.183594 12.539062 14.097656 13.113281 13.898438 C 13.390625 13.804688 13.628906 13.683594 13.699219 13.605469 C 13.726562 13.570312 13.753906 13.507812 13.777344 13.429688 C 13.792969 13.371094 13.796875 13.332031 13.800781 13.039062 C 13.804688 12.859375 13.8125 12.652344 13.816406 12.578125 C 13.828125 12.414062 13.824219 12 13.804688 11.757812 C 13.785156 11.5 13.785156 11.265625 13.808594 11.109375 C 13.820312 11.027344 13.828125 10.9375 13.828125 10.867188 C 13.828125 10.734375 13.816406 10.695312 13.769531 10.648438 C 13.714844 10.597656 13.691406 10.59375 13.398438 10.574219 C 13.25 10.566406 13.015625 10.550781 12.878906 10.539062 C 12.722656 10.53125 12.578125 10.523438 12.480469 10.527344 C 12.335938 10.527344 12.328125 10.53125 12.28125 10.550781 C 12.230469 10.578125 12.179688 10.625 12.140625 10.6875 C 12.125 10.707031 12.078125 10.8125 12.039062 10.914062 C 11.992188 11.027344 11.957031 11.105469 11.949219 11.105469 C 11.929688 11.105469 11.902344 11.058594 11.90625 11.023438 C 11.90625 10.984375 11.964844 10.828125 12.066406 10.601562 C 12.164062 10.378906 12.171875 10.371094 12.199219 10.359375 C 12.246094 10.34375 12.8125 10.351562 13.050781 10.375 C 13.101562 10.378906 13.191406 10.386719 13.246094 10.386719 C 13.300781 10.390625 13.375 10.394531 13.40625 10.398438 C 13.472656 10.402344 13.480469 10.394531 13.433594 10.371094 C 13.394531 10.351562 13.074219 10.226562 12.945312 10.183594 C 12.613281 10.070312 12.125 9.941406 12.023438 9.941406 C 11.941406 9.941406 11.882812 9.972656 11.832031 10.042969 C 11.773438 10.121094 11.378906 10.785156 11.371094 10.824219 C 11.367188 10.84375 11.359375 10.859375 11.355469 10.859375 C 11.347656 10.859375 11.332031 10.847656 11.3125 10.832031 C 11.285156 10.808594 11.28125 10.800781 11.285156 10.773438 C 11.289062 10.730469 11.425781 10.4375 11.601562 10.089844 C 11.695312 9.902344 11.734375 9.835938 11.757812 9.816406 C 11.789062 9.785156 11.78125 9.785156 12.015625 9.808594 C 12.070312 9.8125 12.121094 9.816406 12.125 9.816406 C 12.15625 9.804688 11.777344 9.648438 11.742188 9.65625 C 11.734375 9.65625 11.683594 9.707031 11.632812 9.761719 C 11.582031 9.820312 11.46875 9.9375 11.378906 10.027344 C 11.199219 10.207031 11.128906 10.296875 11.0625 10.433594 C 11.011719 10.539062 10.972656 10.605469 10.949219 10.621094 C 10.9375 10.625 10.886719 10.636719 10.832031 10.640625 C 10.78125 10.648438 10.730469 10.652344 10.722656 10.65625 C 10.714844 10.65625 10.722656 10.632812 10.753906 10.574219 C 10.835938 10.421875 10.945312 10.199219 10.972656 10.128906 C 11.003906 10.046875 11.035156 10.011719 11.140625 9.925781 C 11.253906 9.835938 11.402344 9.703125 11.496094 9.617188 C 11.613281 9.511719 11.644531 9.5 11.710938 9.535156 C 11.777344 9.566406 11.792969 9.554688 11.828125 9.449219 C 11.855469 9.363281 11.855469 9.207031 11.828125 9.121094 C 11.789062 9 11.714844 8.90625 11.542969 8.761719 C 11.425781 8.664062 11.355469 8.5625 11.371094 8.503906 C 11.375 8.492188 11.398438 8.457031 11.429688 8.425781 C 11.460938 8.398438 11.484375 8.363281 11.488281 8.351562 C 11.496094 8.316406 11.484375 8.265625 11.453125 8.203125 C 11.4375 8.171875 11.425781 8.140625 11.425781 8.136719 C 11.425781 8.128906 11.449219 8.125 11.480469 8.121094 C 11.558594 8.113281 11.609375 8.097656 11.644531 8.0625 C 11.675781 8.03125 11.71875 7.945312 11.742188 7.863281 C 11.792969 7.679688 11.757812 7.527344 11.621094 7.355469 C 11.585938 7.308594 11.558594 7.269531 11.5625 7.269531 C 11.5625 7.265625 11.652344 7.25 11.753906 7.230469 C 11.859375 7.214844 11.964844 7.195312 11.996094 7.1875 C 12.132812 7.152344 12.265625 7.042969 12.265625 6.96875 C 12.265625 6.949219 12.222656 6.851562 12.121094 6.640625 C 12.039062 6.472656 11.96875 6.332031 11.964844 6.328125 C 11.960938 6.324219 11.957031 6.332031 11.960938 6.355469 C 11.964844 6.375 12.015625 6.488281 12.089844 6.636719 C 12.222656 6.902344 12.222656 6.910156 12.167969 6.914062 C 12.152344 6.917969 12.101562 6.910156 12.050781 6.898438 C 11.773438 6.832031 11.527344 6.828125 11.304688 6.878906 C 11.175781 6.910156 11.148438 6.914062 11.113281 6.894531 C 11.046875 6.863281 11.015625 6.769531 11.046875 6.714844 C 11.101562 6.625 11.308594 6.59375 11.503906 6.644531 C 11.597656 6.667969 11.691406 6.703125 11.839844 6.761719 C 11.886719 6.777344 11.925781 6.792969 11.929688 6.789062 C 11.933594 6.785156 11.699219 6.363281 11.367188 5.789062 C 11.308594 5.683594 11.234375 5.546875 11.203125 5.488281 C 11.136719 5.355469 11.136719 5.34375 11.203125 5.289062 C 11.324219 5.1875 11.378906 5.136719 11.421875 5.085938 C 11.523438 4.957031 11.574219 4.828125 11.605469 4.644531 L 11.609375 4.613281 L 11.582031 4.644531 C 11.511719 4.734375 11.425781 4.808594 11.402344 4.808594 C 11.398438 4.808594 11.398438 4.777344 11.398438 4.738281 C 11.402344 4.628906 11.375 4.519531 11.3125 4.398438 L 11.292969 4.363281 L 11.289062 4.453125 C 11.285156 4.597656 11.25 4.671875 11.164062 4.710938 C 11.109375 4.738281 11.042969 4.738281 10.960938 4.714844 C 10.898438 4.695312 10.847656 4.671875 10.695312 4.578125 C 10.496094 4.457031 10.398438 4.425781 10.246094 4.4375 C 10.066406 4.445312 9.773438 4.542969 9.585938 4.652344 C 9.558594 4.667969 9.535156 4.679688 9.535156 4.679688 C 9.535156 4.675781 9.554688 4.628906 9.582031 4.578125 C 9.75 4.253906 9.976562 4.023438 10.285156 3.863281 L 10.363281 3.824219 L 10.316406 3.824219 C 10.203125 3.824219 9.976562 3.875 9.78125 3.941406 C 9.71875 3.964844 9.667969 3.980469 9.667969 3.976562 C 9.667969 3.964844 9.757812 3.851562 9.828125 3.765625 C 9.960938 3.613281 10.015625 3.523438 10.035156 3.421875 C 10.066406 3.234375 9.945312 3.066406 9.738281 3.011719 C 9.710938 3.003906 9.675781 3 9.664062 3 L 9.640625 3 L 9.671875 3.023438 C 9.753906 3.082031 9.8125 3.167969 9.828125 3.257812 C 9.835938 3.316406 9.820312 3.382812 9.78125 3.433594 C 9.753906 3.472656 9.726562 3.488281 9.734375 3.464844 C 9.738281 3.457031 9.746094 3.421875 9.75 3.386719 C 9.757812 3.328125 9.757812 3.3125 9.746094 3.273438 C 9.71875 3.175781 9.675781 3.140625 9.4375 3.011719 C 9.355469 2.96875 9.277344 2.921875 9.261719 2.910156 L 9.230469 2.890625 L 9.25 2.878906 C 9.304688 2.859375 9.433594 2.839844 9.539062 2.835938 C 9.871094 2.820312 10.113281 2.902344 10.183594 3.050781 C 10.199219 3.078125 10.203125 3.101562 10.203125 3.152344 C 10.203125 3.1875 10.207031 3.214844 10.207031 3.214844 C 10.222656 3.214844 10.304688 3.132812 10.335938 3.089844 C 10.375 3.039062 10.421875 2.941406 10.460938 2.859375 L 10.476562 2.816406 L 10.496094 2.835938 C 10.511719 2.851562 10.523438 2.851562 10.570312 2.847656 C 10.695312 2.835938 10.777344 2.761719 10.789062 2.632812 C 10.796875 2.566406 10.78125 2.492188 10.742188 2.390625 L 10.710938 2.304688 L 10.765625 2.363281 C 10.867188 2.472656 10.894531 2.53125 11.015625 2.894531 C 11.074219 3.074219 11.132812 3.253906 11.144531 3.296875 C 11.175781 3.398438 11.199219 3.433594 11.25 3.460938 C 11.289062 3.484375 11.304688 3.488281 11.382812 3.488281 C 11.472656 3.492188 11.539062 3.484375 11.53125 3.464844 C 11.53125 3.460938 11.503906 3.445312 11.476562 3.429688 C 11.445312 3.417969 11.414062 3.394531 11.40625 3.382812 C 11.390625 3.359375 11.390625 3.359375 11.402344 3.339844 C 11.414062 3.332031 11.433594 3.320312 11.453125 3.316406 C 11.472656 3.3125 11.519531 3.292969 11.558594 3.273438 C 11.640625 3.234375 11.730469 3.148438 11.773438 3.070312 C 11.84375 2.933594 11.855469 2.75 11.796875 2.636719 C 11.742188 2.53125 11.660156 2.476562 11.484375 2.4375 C 11.371094 2.410156 11.335938 2.394531 11.285156 2.34375 C 11.21875 2.285156 11.214844 2.273438 11.273438 2.300781 C 11.390625 2.359375 11.527344 2.355469 11.617188 2.289062 L 11.644531 2.269531 L 11.550781 2.265625 C 11.425781 2.257812 11.371094 2.242188 11.332031 2.203125 C 11.304688 2.175781 11.285156 2.140625 11.285156 2.128906 C 11.285156 2.128906 11.300781 2.136719 11.320312 2.152344 C 11.355469 2.179688 11.421875 2.207031 11.429688 2.199219 C 11.429688 2.195312 11.425781 2.175781 11.417969 2.152344 C 11.390625 2.082031 11.394531 2.015625 11.433594 1.871094 C 11.453125 1.804688 11.464844 1.746094 11.464844 1.746094 C 11.464844 1.742188 11.449219 1.753906 11.433594 1.765625 C 11.289062 1.878906 11.101562 1.972656 10.933594 2.003906 C 10.835938 2.023438 10.632812 2.023438 10.535156 2.003906 C 10.492188 1.996094 10.457031 1.988281 10.457031 1.984375 C 10.457031 1.976562 10.601562 1.84375 10.648438 1.804688 C 10.804688 1.6875 10.972656 1.625 11.136719 1.625 C 11.175781 1.625 11.207031 1.621094 11.207031 1.621094 C 11.207031 1.617188 11.195312 1.585938 11.179688 1.550781 C 11.121094 1.4375 11.019531 1.351562 10.886719 1.320312 C 10.816406 1.300781 10.683594 1.300781 10.636719 1.320312 C 10.554688 1.355469 10.507812 1.40625 10.449219 1.523438 C 10.339844 1.75 10.308594 1.804688 10.203125 1.917969 C 10.105469 2.023438 9.921875 2.164062 9.742188 2.269531 C 9.648438 2.328125 9.390625 2.464844 9.378906 2.464844 C 9.363281 2.464844 9.410156 2.300781 9.460938 2.207031 C 9.535156 2.050781 9.6875 1.886719 9.820312 1.8125 C 9.925781 1.75 9.929688 1.75 9.964844 1.679688 C 10.007812 1.601562 10.105469 1.488281 10.1875 1.417969 C 10.222656 1.386719 10.25 1.359375 10.25 1.359375 C 10.25 1.355469 10.210938 1.335938 10.164062 1.3125 C 10.117188 1.285156 10.058594 1.253906 10.027344 1.238281 C 9.933594 1.179688 9.859375 1.164062 9.765625 1.183594 C 9.695312 1.199219 9.378906 1.359375 9.148438 1.5 C 8.871094 1.667969 8.402344 1.992188 8.128906 2.210938 C 8.082031 2.246094 8.039062 2.285156 8.027344 2.289062 C 8.011719 2.304688 8.011719 2.304688 8.023438 2.289062 C 8.066406 2.234375 8.34375 1.917969 8.453125 1.800781 C 8.6875 1.546875 8.875 1.378906 9.078125 1.222656 C 9.1875 1.140625 9.347656 1.035156 9.417969 0.992188 C 9.445312 0.976562 9.46875 0.960938 9.472656 0.957031 C 9.480469 0.945312 9.449219 0.933594 9.339844 0.917969 C 9.28125 0.90625 9.144531 0.882812 9.042969 0.863281 C 8.847656 0.824219 8.828125 0.820312 8.761719 0.835938 Z M 6.976562 1.777344 C 6.957031 1.800781 6.9375 1.824219 6.933594 1.824219 C 6.820312 1.945312 6.53125 2.304688 6.335938 2.574219 C 6.171875 2.800781 5.773438 3.375 5.75 3.417969 C 5.746094 3.425781 5.738281 3.433594 5.734375 3.429688 C 5.730469 3.425781 5.863281 3.152344 5.933594 3.035156 C 6.089844 2.761719 6.261719 2.523438 6.476562 2.265625 C 6.5625 2.164062 7.007812 1.722656 7.015625 1.730469 C 7.015625 1.730469 7 1.753906 6.976562 1.777344 Z M 9.207031 2.273438 C 9.152344 2.425781 9.074219 2.550781 8.945312 2.679688 C 8.835938 2.789062 8.695312 2.894531 8.507812 3.003906 L 8.464844 3.027344 L 8.472656 2.984375 C 8.496094 2.800781 8.601562 2.597656 8.757812 2.441406 C 8.847656 2.351562 8.929688 2.292969 9.015625 2.257812 C 9.078125 2.230469 9.183594 2.199219 9.214844 2.199219 L 9.234375 2.199219 Z M 10.363281 2.285156 C 10.417969 2.300781 10.550781 2.367188 10.554688 2.378906 C 10.554688 2.390625 10.460938 2.464844 10.394531 2.5 C 10.363281 2.519531 10.300781 2.546875 10.257812 2.558594 C 10.183594 2.585938 10.175781 2.585938 10.035156 2.585938 C 9.925781 2.585938 9.871094 2.585938 9.820312 2.574219 C 9.707031 2.546875 9.617188 2.523438 9.617188 2.515625 C 9.617188 2.503906 9.765625 2.398438 9.832031 2.363281 C 9.914062 2.320312 10.027344 2.285156 10.085938 2.277344 C 10.109375 2.273438 10.128906 2.269531 10.132812 2.269531 C 10.140625 2.261719 10.3125 2.273438 10.363281 2.285156 Z M 11.324219 2.4375 C 11.347656 2.453125 11.414062 2.480469 11.464844 2.5 C 11.589844 2.542969 11.613281 2.558594 11.664062 2.605469 C 11.753906 2.683594 11.796875 2.820312 11.761719 2.929688 C 11.75 2.976562 11.710938 3.054688 11.703125 3.046875 C 11.699219 3.046875 11.703125 3.027344 11.710938 3.003906 C 11.714844 2.984375 11.714844 2.9375 11.714844 2.902344 C 11.710938 2.769531 11.640625 2.699219 11.472656 2.640625 C 11.3125 2.589844 11.242188 2.519531 11.207031 2.382812 L 11.191406 2.335938 L 11.234375 2.375 C 11.257812 2.394531 11.296875 2.425781 11.324219 2.4375 Z M 9.105469 3.050781 C 9.132812 3.0625 9.164062 3.074219 9.175781 3.085938 C 9.191406 3.097656 9.195312 3.101562 9.1875 3.121094 C 9.171875 3.152344 9.015625 3.308594 8.945312 3.359375 C 8.792969 3.476562 8.667969 3.515625 8.449219 3.523438 C 8.332031 3.523438 8.324219 3.523438 8.308594 3.507812 C 8.292969 3.492188 8.292969 3.492188 8.308594 3.460938 C 8.316406 3.441406 8.332031 3.421875 8.34375 3.410156 C 8.355469 3.398438 8.375 3.371094 8.386719 3.355469 C 8.425781 3.304688 8.539062 3.1875 8.585938 3.152344 C 8.644531 3.105469 8.722656 3.066406 8.804688 3.042969 C 8.894531 3.019531 9.027344 3.023438 9.105469 3.050781 Z M 8.097656 3.261719 C 8.105469 3.285156 8.066406 3.402344 8.023438 3.496094 C 7.925781 3.707031 7.757812 3.886719 7.507812 4.046875 L 7.421875 4.101562 L 7.417969 4.078125 C 7.414062 4.039062 7.449219 3.890625 7.480469 3.808594 C 7.582031 3.539062 7.757812 3.347656 7.96875 3.273438 C 8.046875 3.246094 8.089844 3.242188 8.097656 3.261719 Z M 7.214844 3.65625 C 7.183594 3.875 7.066406 4.097656 6.894531 4.277344 C 6.777344 4.398438 6.625 4.535156 6.605469 4.535156 C 6.59375 4.535156 6.605469 4.363281 6.625 4.28125 C 6.675781 4.050781 6.824219 3.816406 6.996094 3.699219 C 7.066406 3.652344 7.15625 3.613281 7.210938 3.609375 C 7.222656 3.609375 7.222656 3.613281 7.214844 3.65625 Z M 8.523438 3.929688 C 8.648438 3.957031 8.730469 4.003906 8.867188 4.121094 C 8.964844 4.199219 9.003906 4.222656 9.078125 4.222656 C 9.109375 4.222656 9.132812 4.222656 9.132812 4.226562 C 9.132812 4.226562 9.117188 4.253906 9.101562 4.28125 C 8.964844 4.488281 8.671875 4.515625 8.417969 4.34375 C 8.320312 4.277344 8.085938 4.027344 8.101562 4.011719 C 8.121094 3.992188 8.25 3.945312 8.3125 3.929688 C 8.390625 3.914062 8.445312 3.914062 8.523438 3.929688 Z M 7.773438 4.296875 C 7.878906 4.316406 8.011719 4.363281 8.019531 4.390625 C 8.027344 4.40625 8.011719 4.425781 7.960938 4.476562 C 7.859375 4.566406 7.742188 4.628906 7.605469 4.664062 C 7.527344 4.683594 7.328125 4.6875 7.230469 4.675781 C 7.101562 4.660156 6.898438 4.609375 6.898438 4.589844 C 6.898438 4.585938 6.929688 4.558594 6.964844 4.527344 C 7.199219 4.324219 7.480469 4.242188 7.773438 4.296875 Z M 6.277344 4.300781 C 6.289062 4.320312 6.273438 4.402344 6.238281 4.511719 C 6.167969 4.726562 6.0625 4.886719 5.871094 5.078125 C 5.757812 5.183594 5.699219 5.234375 5.691406 5.230469 C 5.679688 5.222656 5.6875 5.035156 5.703125 4.960938 C 5.746094 4.761719 5.828125 4.601562 5.957031 4.472656 C 6.019531 4.410156 6.070312 4.371094 6.164062 4.324219 C 6.238281 4.28125 6.261719 4.277344 6.277344 4.300781 Z M 5.429688 4.957031 C 5.394531 5.28125 5.277344 5.511719 5 5.78125 C 4.964844 5.8125 4.9375 5.839844 4.933594 5.839844 C 4.921875 5.839844 4.90625 5.773438 4.902344 5.710938 C 4.894531 5.632812 4.910156 5.53125 4.945312 5.425781 C 5.023438 5.191406 5.183594 5.003906 5.363281 4.929688 C 5.433594 4.898438 5.433594 4.898438 5.429688 4.957031 Z M 7.421875 5.121094 C 7.621094 5.1875 7.75 5.253906 7.8125 5.328125 C 7.84375 5.363281 7.847656 5.375 7.832031 5.371094 C 7.824219 5.371094 7.820312 5.390625 7.824219 5.441406 C 7.824219 5.507812 7.824219 5.515625 7.796875 5.574219 C 7.753906 5.652344 7.679688 5.726562 7.5625 5.804688 C 7.511719 5.839844 7.472656 5.863281 7.46875 5.863281 C 7.46875 5.863281 7.476562 5.835938 7.488281 5.808594 C 7.53125 5.695312 7.542969 5.601562 7.523438 5.519531 C 7.496094 5.425781 7.453125 5.371094 7.320312 5.261719 C 7.210938 5.175781 7.101562 5.074219 7.054688 5.019531 C 7.039062 5 7.078125 5.011719 7.421875 5.121094 Z M 6.617188 5.238281 C 6.691406 5.261719 6.742188 5.28125 6.816406 5.320312 C 6.863281 5.347656 6.867188 5.351562 6.859375 5.371094 C 6.835938 5.410156 6.726562 5.503906 6.664062 5.539062 C 6.453125 5.648438 6.152344 5.660156 5.871094 5.566406 C 5.828125 5.550781 5.792969 5.535156 5.792969 5.53125 C 5.792969 5.527344 5.820312 5.496094 5.855469 5.460938 C 5.960938 5.359375 6.097656 5.277344 6.226562 5.242188 C 6.316406 5.21875 6.320312 5.21875 6.441406 5.222656 C 6.523438 5.222656 6.570312 5.226562 6.617188 5.238281 Z M 7.890625 5.425781 C 7.902344 5.449219 7.921875 5.488281 7.933594 5.515625 C 7.949219 5.5625 7.953125 5.582031 7.949219 5.664062 C 7.945312 5.710938 7.9375 5.773438 7.929688 5.800781 C 7.886719 5.949219 7.925781 6.074219 8.03125 6.125 C 8.0625 6.140625 8.09375 6.148438 8.117188 6.152344 L 8.152344 6.152344 L 8.113281 6.171875 C 8.027344 6.210938 7.917969 6.191406 7.839844 6.117188 C 7.78125 6.066406 7.757812 6.011719 7.757812 5.9375 C 7.757812 5.867188 7.773438 5.824219 7.820312 5.730469 C 7.878906 5.617188 7.898438 5.523438 7.871094 5.4375 C 7.851562 5.378906 7.855469 5.375 7.890625 5.425781 Z M 9.917969 5.601562 C 10.164062 5.660156 10.265625 5.667969 10.390625 5.636719 C 10.414062 5.628906 10.4375 5.625 10.4375 5.628906 C 10.445312 5.632812 10.367188 5.738281 10.328125 5.78125 C 10.285156 5.824219 10.285156 5.828125 10.300781 5.832031 C 10.339844 5.839844 10.386719 5.875 10.410156 5.90625 C 10.4375 5.949219 10.449219 5.992188 10.457031 6.113281 L 10.460938 6.210938 L 10.519531 6.113281 C 10.617188 5.945312 10.621094 5.9375 10.632812 5.957031 C 10.636719 5.964844 10.640625 5.984375 10.644531 6.003906 C 10.660156 6.085938 10.714844 6.214844 10.824219 6.417969 C 10.863281 6.496094 10.882812 6.535156 10.878906 6.546875 C 10.875 6.554688 10.859375 6.578125 10.847656 6.601562 C 10.761719 6.722656 10.660156 6.917969 10.589844 7.097656 C 10.527344 7.253906 10.488281 7.375 10.410156 7.664062 C 10.371094 7.800781 10.339844 7.914062 10.339844 7.914062 C 10.332031 7.921875 10.246094 7.800781 10.1875 7.699219 C 10.125 7.597656 10.078125 7.480469 10.046875 7.367188 C 10.023438 7.277344 10.023438 7.261719 10.023438 7.121094 C 10.023438 6.992188 10.023438 6.960938 10.039062 6.902344 C 10.082031 6.753906 10.1875 6.589844 10.304688 6.492188 C 10.332031 6.464844 10.359375 6.445312 10.359375 6.441406 C 10.359375 6.4375 10.3125 6.453125 10.261719 6.46875 C 10.175781 6.5 10.152344 6.503906 10.074219 6.503906 C 9.886719 6.511719 9.734375 6.453125 9.503906 6.28125 C 9.328125 6.148438 9.125 5.898438 9.070312 5.75 C 9.054688 5.703125 9.0625 5.695312 9.132812 5.679688 C 9.226562 5.660156 9.304688 5.65625 9.394531 5.671875 C 9.511719 5.6875 9.589844 5.714844 9.777344 5.808594 C 9.964844 5.902344 10.054688 5.941406 10.09375 5.941406 C 10.117188 5.941406 10.113281 5.9375 10.042969 5.882812 C 9.910156 5.777344 9.734375 5.597656 9.734375 5.566406 C 9.734375 5.554688 9.746094 5.554688 9.917969 5.601562 Z M 5.683594 5.839844 C 5.714844 5.847656 5.730469 5.859375 5.730469 5.871094 C 5.742188 5.914062 5.511719 6.167969 5.386719 6.25 C 5.269531 6.328125 5.105469 6.398438 4.996094 6.414062 C 4.976562 6.414062 4.925781 6.421875 4.886719 6.429688 C 4.84375 6.4375 4.800781 6.441406 4.792969 6.4375 C 4.777344 6.433594 4.777344 6.429688 4.8125 6.359375 C 4.855469 6.273438 4.941406 6.144531 5 6.078125 C 5.089844 5.972656 5.25 5.871094 5.390625 5.832031 C 5.472656 5.8125 5.613281 5.8125 5.683594 5.839844 Z M 4.613281 6.183594 C 4.59375 6.464844 4.476562 6.699219 4.21875 6.976562 L 4.136719 7.0625 L 4.125 7.027344 C 4.097656 6.925781 4.09375 6.851562 4.113281 6.75 C 4.152344 6.527344 4.28125 6.304688 4.445312 6.179688 C 4.488281 6.148438 4.589844 6.09375 4.609375 6.089844 C 4.617188 6.089844 4.617188 6.109375 4.613281 6.183594 Z M 5.816406 6.433594 C 5.914062 6.445312 6.09375 6.503906 6.125 6.535156 C 6.148438 6.554688 6.152344 6.5625 6.144531 6.582031 C 6.144531 6.59375 6.132812 6.609375 6.125 6.621094 C 6.109375 6.640625 5.980469 6.71875 5.929688 6.742188 C 5.738281 6.824219 5.484375 6.808594 5.214844 6.6875 C 5.1875 6.675781 5.167969 6.664062 5.167969 6.664062 C 5.167969 6.65625 5.335938 6.546875 5.394531 6.519531 C 5.5 6.464844 5.621094 6.433594 5.730469 6.425781 C 5.738281 6.425781 5.777344 6.429688 5.816406 6.433594 Z M 5.003906 7.097656 C 5.09375 7.121094 5.195312 7.171875 5.242188 7.214844 L 5.277344 7.25 L 5.257812 7.269531 C 5.226562 7.304688 5.09375 7.363281 5.003906 7.386719 C 4.875 7.421875 4.726562 7.414062 4.585938 7.371094 C 4.53125 7.351562 4.339844 7.265625 4.339844 7.257812 C 4.34375 7.25 4.421875 7.195312 4.496094 7.15625 C 4.605469 7.097656 4.703125 7.074219 4.828125 7.074219 C 4.914062 7.074219 4.941406 7.078125 5.003906 7.097656 Z M 8.238281 7.257812 C 8.285156 7.308594 8.347656 7.351562 8.472656 7.410156 C 8.542969 7.441406 8.574219 7.460938 8.613281 7.503906 C 8.714844 7.605469 8.753906 7.75 8.722656 7.886719 C 8.699219 7.976562 8.660156 8.035156 8.546875 8.164062 C 8.507812 8.207031 8.496094 8.195312 8.511719 8.132812 C 8.53125 8.0625 8.527344 7.9375 8.507812 7.878906 C 8.472656 7.777344 8.394531 7.703125 8.253906 7.632812 C 8.105469 7.558594 8.042969 7.511719 7.984375 7.425781 C 7.945312 7.375 7.914062 7.28125 7.917969 7.238281 L 7.921875 7.210938 L 7.941406 7.253906 C 7.960938 7.296875 7.988281 7.332031 8 7.332031 C 8.003906 7.332031 8.007812 7.324219 8.011719 7.3125 C 8.011719 7.296875 8.015625 7.296875 8.0625 7.292969 C 8.089844 7.292969 8.117188 7.289062 8.128906 7.289062 C 8.15625 7.28125 8.171875 7.242188 8.164062 7.179688 L 8.160156 7.128906 L 8.179688 7.171875 C 8.191406 7.195312 8.21875 7.234375 8.238281 7.257812 Z M 11.429688 7.542969 C 11.460938 7.597656 11.480469 7.648438 11.480469 7.648438 C 11.476562 7.652344 11.460938 7.640625 11.4375 7.628906 C 11.386719 7.597656 11.363281 7.566406 11.359375 7.507812 C 11.355469 7.460938 11.363281 7.425781 11.371094 7.4375 C 11.375 7.4375 11.402344 7.488281 11.429688 7.542969 Z M 11.160156 7.605469 C 11.167969 7.632812 11.199219 7.722656 11.226562 7.808594 C 11.285156 7.957031 11.289062 7.984375 11.277344 7.984375 C 11.253906 7.984375 11.160156 7.910156 11.128906 7.863281 C 11.046875 7.753906 11.039062 7.597656 11.113281 7.488281 L 11.136719 7.453125 L 11.144531 7.503906 C 11.148438 7.535156 11.152344 7.578125 11.160156 7.605469 Z M 11.28125 7.589844 C 11.316406 7.648438 11.390625 7.816406 11.390625 7.835938 C 11.390625 7.847656 11.347656 7.8125 11.308594 7.773438 C 11.253906 7.71875 11.222656 7.644531 11.21875 7.5625 C 11.214844 7.484375 11.21875 7.484375 11.28125 7.589844 Z M 11.058594 7.886719 C 11.117188 8.023438 11.132812 8.066406 11.132812 8.078125 C 11.125 8.09375 11.007812 7.957031 10.976562 7.894531 C 10.949219 7.835938 10.945312 7.824219 10.945312 7.753906 C 10.945312 7.710938 10.949219 7.664062 10.957031 7.644531 L 10.96875 7.613281 L 10.992188 7.699219 C 11.003906 7.75 11.035156 7.832031 11.058594 7.886719 Z M 10.917969 7.890625 C 10.9375 7.945312 10.964844 8.011719 10.972656 8.039062 C 10.996094 8.109375 11.003906 8.214844 10.992188 8.265625 L 10.980469 8.300781 L 10.960938 8.265625 C 10.949219 8.246094 10.914062 8.191406 10.886719 8.148438 C 10.855469 8.101562 10.820312 8.035156 10.808594 8.003906 C 10.765625 7.898438 10.777344 7.757812 10.828125 7.675781 L 10.84375 7.65625 L 10.863281 7.726562 C 10.871094 7.765625 10.898438 7.839844 10.917969 7.890625 Z M 9.320312 7.996094 C 9.367188 8.09375 9.4375 8.148438 9.621094 8.222656 C 9.765625 8.277344 9.820312 8.308594 9.886719 8.371094 L 9.933594 8.414062 L 9.800781 8.410156 C 9.722656 8.410156 9.644531 8.40625 9.621094 8.40625 C 9.601562 8.40625 9.582031 8.40625 9.582031 8.410156 C 9.582031 8.410156 9.59375 8.421875 9.609375 8.433594 C 9.636719 8.453125 9.710938 8.53125 9.726562 8.554688 C 9.777344 8.625 9.8125 8.726562 9.816406 8.808594 C 9.816406 8.835938 9.8125 8.886719 9.808594 8.925781 C 9.796875 9 9.792969 9 9.773438 8.917969 C 9.757812 8.84375 9.710938 8.761719 9.648438 8.699219 C 9.585938 8.632812 9.523438 8.597656 9.402344 8.546875 C 9.285156 8.496094 9.253906 8.476562 9.207031 8.425781 C 9.109375 8.324219 9.085938 8.1875 9.136719 8.035156 C 9.160156 7.964844 9.203125 7.882812 9.246094 7.832031 L 9.277344 7.796875 L 9.289062 7.875 C 9.296875 7.917969 9.308594 7.96875 9.320312 7.996094 Z M 10.722656 7.875 C 10.722656 7.933594 10.738281 7.996094 10.785156 8.128906 C 10.839844 8.289062 10.839844 8.394531 10.78125 8.492188 L 10.753906 8.539062 L 10.75 8.492188 C 10.75 8.429688 10.738281 8.425781 10.722656 8.476562 C 10.714844 8.5 10.695312 8.542969 10.683594 8.566406 C 10.65625 8.613281 10.558594 8.746094 10.554688 8.738281 C 10.550781 8.738281 10.554688 8.703125 10.5625 8.660156 C 10.570312 8.613281 10.578125 8.503906 10.582031 8.347656 C 10.589844 8.128906 10.589844 8.097656 10.609375 8.046875 C 10.628906 7.984375 10.707031 7.824219 10.714844 7.824219 C 10.71875 7.824219 10.722656 7.847656 10.722656 7.875 Z M 8.328125 8.296875 C 8.378906 8.300781 8.460938 8.335938 8.5 8.363281 C 8.613281 8.449219 8.667969 8.605469 8.628906 8.753906 C 8.601562 8.859375 8.511719 8.992188 8.421875 9.066406 C 8.371094 9.105469 8.316406 9.136719 8.3125 9.128906 C 8.308594 9.128906 8.316406 9.109375 8.324219 9.089844 C 8.351562 9.027344 8.375 8.925781 8.375 8.871094 C 8.375 8.78125 8.335938 8.675781 8.277344 8.601562 C 8.214844 8.527344 8.09375 8.46875 7.949219 8.449219 C 7.914062 8.441406 7.882812 8.4375 7.882812 8.433594 C 7.882812 8.429688 7.914062 8.410156 7.949219 8.386719 C 8.039062 8.324219 8.113281 8.300781 8.203125 8.292969 C 8.246094 8.289062 8.28125 8.289062 8.285156 8.289062 C 8.285156 8.289062 8.304688 8.292969 8.328125 8.296875 Z M 8.914062 8.785156 C 8.917969 8.878906 8.96875 8.976562 9.042969 9.027344 C 9.066406 9.042969 9.125 9.066406 9.167969 9.082031 C 9.332031 9.140625 9.40625 9.1875 9.46875 9.277344 C 9.527344 9.359375 9.550781 9.429688 9.558594 9.535156 C 9.5625 9.675781 9.519531 9.800781 9.425781 9.902344 C 9.386719 9.941406 9.285156 10.023438 9.273438 10.023438 C 9.269531 10.023438 9.277344 9.996094 9.285156 9.960938 C 9.304688 9.882812 9.308594 9.707031 9.292969 9.652344 C 9.261719 9.550781 9.175781 9.472656 9.027344 9.414062 C 8.890625 9.359375 8.839844 9.3125 8.808594 9.21875 C 8.789062 9.152344 8.789062 9.121094 8.808594 9.019531 C 8.824219 8.941406 8.894531 8.757812 8.90625 8.757812 C 8.910156 8.757812 8.914062 8.769531 8.914062 8.785156 Z M 11.113281 8.796875 C 11.234375 8.828125 11.355469 8.945312 11.394531 9.066406 C 11.410156 9.121094 11.414062 9.226562 11.398438 9.273438 C 11.382812 9.3125 11.351562 9.371094 11.320312 9.402344 L 11.300781 9.429688 L 11.304688 9.390625 C 11.320312 9.308594 11.3125 9.25 11.285156 9.191406 C 11.25 9.121094 11.207031 9.082031 11.109375 9.027344 C 11.019531 8.984375 10.980469 8.941406 10.960938 8.878906 C 10.941406 8.804688 10.949219 8.789062 11 8.78125 C 11.035156 8.777344 11.054688 8.78125 11.113281 8.796875 Z M 10.148438 9.261719 C 10.183594 9.328125 10.296875 9.4375 10.390625 9.488281 C 10.53125 9.5625 10.613281 9.660156 10.652344 9.792969 C 10.667969 9.835938 10.683594 10 10.671875 10 C 10.667969 10 10.65625 9.980469 10.644531 9.953125 C 10.613281 9.890625 10.550781 9.832031 10.476562 9.792969 C 10.445312 9.777344 10.414062 9.765625 10.410156 9.769531 C 10.410156 9.773438 10.417969 9.789062 10.429688 9.804688 C 10.484375 9.875 10.550781 10 10.550781 10.03125 C 10.550781 10.035156 10.523438 10.011719 10.488281 9.980469 C 10.417969 9.910156 10.367188 9.878906 10.25 9.839844 C 10.128906 9.796875 10.074219 9.761719 10.023438 9.710938 C 9.964844 9.644531 9.929688 9.539062 9.945312 9.480469 C 9.953125 9.445312 10 9.402344 10.035156 9.390625 C 10.089844 9.375 10.089844 9.375 10.089844 9.261719 C 10.089844 9.132812 10.097656 9.113281 10.117188 9.175781 C 10.125 9.199219 10.140625 9.238281 10.148438 9.261719 Z M 12.691406 11.136719 C 12.738281 11.160156 12.824219 11.179688 12.914062 11.1875 C 13.058594 11.199219 13.058594 11.195312 12.933594 11.257812 C 12.835938 11.304688 12.8125 11.320312 12.753906 11.378906 C 12.703125 11.425781 12.675781 11.460938 12.660156 11.496094 C 12.632812 11.550781 12.617188 11.625 12.621094 11.660156 C 12.628906 11.695312 12.609375 11.730469 12.558594 11.777344 C 12.511719 11.816406 12.445312 11.867188 12.433594 11.867188 C 12.425781 11.867188 12.441406 11.847656 12.460938 11.824219 C 12.511719 11.761719 12.535156 11.699219 12.539062 11.625 C 12.542969 11.550781 12.53125 11.496094 12.484375 11.394531 C 12.445312 11.316406 12.445312 11.304688 12.488281 11.265625 C 12.515625 11.238281 12.542969 11.1875 12.5625 11.117188 C 12.570312 11.085938 12.578125 11.058594 12.578125 11.058594 C 12.582031 11.054688 12.597656 11.066406 12.617188 11.085938 C 12.636719 11.101562 12.667969 11.125 12.691406 11.136719 Z M 12.121094 11.816406 C 12.148438 11.851562 12.179688 11.878906 12.199219 11.886719 C 12.238281 11.902344 12.265625 11.9375 12.269531 11.972656 C 12.273438 11.984375 12.277344 12.035156 12.277344 12.078125 L 12.285156 12.164062 L 12.234375 12.070312 C 12.207031 12.019531 12.152344 11.925781 12.113281 11.859375 C 12.074219 11.792969 12.039062 11.734375 12.035156 11.730469 C 12.023438 11.710938 12.078125 11.765625 12.121094 11.816406 Z M 12.121094 11.816406 "/>
<path style=" stroke:none;fill-rule:nonzero;fill:rgb(0%,0%,0%);fill-opacity:1;" d="M 11.921875 7.59375 C 11.839844 7.636719 11.804688 7.695312 11.789062 7.824219 C 11.78125 7.890625 11.78125 7.933594 11.789062 8.007812 C 11.816406 8.273438 11.933594 8.535156 12.242188 9.007812 C 12.304688 9.105469 12.3125 9.140625 12.300781 9.246094 C 12.296875 9.289062 12.292969 9.402344 12.292969 9.5 C 12.292969 9.652344 12.292969 9.675781 12.308594 9.691406 C 12.3125 9.699219 12.390625 9.738281 12.480469 9.777344 C 12.566406 9.816406 12.78125 9.914062 12.953125 9.992188 C 13.128906 10.070312 13.277344 10.136719 13.289062 10.140625 C 13.296875 10.140625 13.277344 10.125 13.246094 10.097656 C 13.214844 10.070312 13.1875 10.039062 13.179688 10.023438 C 13.171875 10.011719 13.140625 9.867188 13.113281 9.707031 C 13.082031 9.542969 13.050781 9.367188 13.039062 9.3125 C 13.027344 9.253906 13.007812 9.152344 13 9.082031 C 12.988281 9.011719 12.976562 8.941406 12.96875 8.921875 C 12.953125 8.875 12.886719 8.773438 12.835938 8.707031 C 12.78125 8.648438 12.601562 8.464844 12.613281 8.484375 C 12.628906 8.511719 12.707031 8.636719 12.777344 8.738281 C 12.816406 8.800781 12.859375 8.863281 12.867188 8.882812 C 12.886719 8.921875 12.90625 8.996094 12.914062 9.0625 C 12.914062 9.089844 12.917969 9.121094 12.921875 9.132812 C 12.925781 9.15625 12.96875 9.519531 12.984375 9.664062 C 12.992188 9.714844 12.996094 9.761719 12.992188 9.761719 C 12.988281 9.765625 12.941406 9.585938 12.820312 9.085938 C 12.804688 9.019531 12.78125 8.945312 12.761719 8.914062 C 12.746094 8.878906 12.675781 8.777344 12.605469 8.683594 C 12.398438 8.402344 12.25 8.171875 12.105469 7.902344 C 12.003906 7.71875 11.960938 7.601562 11.988281 7.613281 C 12.007812 7.621094 12.046875 7.652344 12.0625 7.675781 C 12.066406 7.6875 12.089844 7.710938 12.105469 7.730469 L 12.136719 7.761719 L 12.128906 7.738281 C 12.117188 7.683594 12.074219 7.609375 12.046875 7.589844 C 12.011719 7.570312 11.964844 7.570312 11.921875 7.59375 Z M 11.921875 7.59375 "/>
</g>
</svg>
